<svg width="20" height="21" viewBox="0 0 20 21" fill="none" xmlns="http://www.w3.org/2000/svg">
<path d="M10.2325 1.89126C10.0833 1.83145 9.91673 1.83145 9.7675 1.89126L2.3075 4.87501L5.3125 6.07626L13.005 3.00001L10.2325 1.89126ZM14.6875 3.67376L6.995 6.75001L10 7.95126L17.6925 4.87501L14.6875 3.67376ZM18.75 5.79876L10.625 9.04876V18.9513L18.75 15.7013V5.79876ZM9.375 18.9525V9.04751L1.25 5.79876V15.7025L9.375 18.9525ZM9.30375 0.73001C9.75071 0.55126 10.2493 0.55126 10.6963 0.73001L19.6075 4.29501C19.7234 4.34144 19.8227 4.4215 19.8926 4.52487C19.9626 4.62824 20 4.75019 20 4.87501V15.7025C19.9998 15.9523 19.9249 16.1963 19.7847 16.403C19.6446 16.6098 19.4457 16.7698 19.2138 16.8625L10.2325 20.455C10.0833 20.5148 9.91673 20.5148 9.7675 20.455L0.7875 16.8625C0.555314 16.77 0.356178 16.6101 0.215803 16.4033C0.0754271 16.1965 0.000257912 15.9524 0 15.7025L0 4.87501C2.90499e-05 4.75019 0.0374297 4.62824 0.107384 4.52487C0.177338 4.4215 0.276641 4.34144 0.3925 4.29501L9.30375 0.73001Z" fill="#686868"/>
</svg>
