<svg width="40" height="40" viewBox="0 0 40 40" fill="none" xmlns="http://www.w3.org/2000/svg">
<path d="M38.2456 20C38.2456 30.0768 30.0768 38.2456 20 38.2456C9.92323 38.2456 1.75439 30.0768 1.75439 20C1.75439 9.92323 9.92323 1.75439 20 1.75439C30.0768 1.75439 38.2456 9.92323 38.2456 20Z" fill="#121212" fill-opacity="0.5"/>
<path fill-rule="evenodd" clip-rule="evenodd" d="M40 20C40 31.0457 31.0457 40 20 40C8.9543 40 0 31.0457 0 20C0 8.9543 8.9543 0 20 0C31.0457 0 40 8.9543 40 20ZM20 38.2456C30.0768 38.2456 38.2456 30.0768 38.2456 20C38.2456 9.92323 30.0768 1.75439 20 1.75439C9.92323 1.75439 1.75439 9.92323 1.75439 20C1.75439 30.0768 9.92323 38.2456 20 38.2456Z" fill="white"/>
<path d="M19.7378 10.4083C19.7747 10.0978 20.2253 10.0978 20.2622 10.4083L20.5713 13.0135C20.9704 16.3774 23.6226 19.0296 26.9865 19.4287L29.5916 19.7378C29.9022 19.7747 29.9022 20.2253 29.5916 20.2622L26.9865 20.5713C23.6226 20.9704 20.9704 23.6226 20.5713 26.9865L20.2622 29.5916C20.2253 29.9022 19.7747 29.9022 19.7378 29.5916L19.4287 26.9865C19.0296 23.6226 16.3774 20.9704 13.0135 20.5713L10.4083 20.2622C10.0978 20.2253 10.0978 19.7747 10.4083 19.7378L13.0135 19.4287C16.3774 19.0296 19.0296 16.3774 19.4287 13.0135L19.7378 10.4083Z" fill="white"/>
</svg>
