<svg width="14" height="15" viewBox="0 0 14 15" fill="none" xmlns="http://www.w3.org/2000/svg">
<g clip-path="url(#clip0_2260_1472)">
<path d="M14 7.5C14 9.35652 13.2625 11.137 11.9497 12.4497C10.637 13.7625 8.85652 14.5 7 14.5C5.14348 14.5 3.36301 13.7625 2.05025 12.4497C0.737498 11.137 0 9.35652 0 7.5C0 5.64348 0.737498 3.86301 2.05025 2.55025C3.36301 1.2375 5.14348 0.5 7 0.5C8.85652 0.5 10.637 1.2375 11.9497 2.55025C13.2625 3.86301 14 5.64348 14 7.5ZM10.5262 4.84875C10.4637 4.78647 10.3893 4.73743 10.3074 4.70456C10.2256 4.6717 10.1379 4.65569 10.0497 4.65749C9.96144 4.65928 9.87449 4.67885 9.79401 4.71502C9.71352 4.75119 9.64116 4.80322 9.58125 4.868L6.54238 8.73987L4.711 6.90762C4.5866 6.7917 4.42206 6.7286 4.25204 6.7316C4.08203 6.7346 3.91982 6.80347 3.79958 6.92371C3.67934 7.04394 3.61047 7.20615 3.60747 7.37617C3.60447 7.54618 3.66758 7.71072 3.7835 7.83513L6.09875 10.1512C6.16112 10.2135 6.23539 10.2626 6.31714 10.2955C6.39888 10.3284 6.48642 10.3446 6.57453 10.3429C6.66264 10.3413 6.74952 10.3219 6.82998 10.286C6.91045 10.2501 6.98285 10.1983 7.04287 10.1338L10.5359 5.7675C10.655 5.64369 10.7207 5.47812 10.7191 5.30634C10.7175 5.13456 10.6485 4.97027 10.5271 4.84875H10.5262Z" fill="black"/>
</g>
<defs>
<clipPath id="clip0_2260_1472">
<rect width="14" height="14" fill="white" transform="translate(0 0.5)"/>
</clipPath>
</defs>
</svg>
