<svg width="21" height="20" viewBox="0 0 21 20" fill="none" xmlns="http://www.w3.org/2000/svg">
<path d="M8.88572 8.38599C8.9469 8.32487 9.02516 8.28372 9.1102 8.268C9.19523 8.25227 9.28304 8.2627 9.36202 8.29791L20.246 13.1354C20.3221 13.1692 20.3867 13.2245 20.4318 13.2945C20.4769 13.3645 20.5006 13.4462 20.5 13.5295C20.4994 13.6128 20.4744 13.694 20.4282 13.7634C20.382 13.8327 20.3166 13.887 20.24 13.9196L16.1645 15.6649L14.4183 19.7414C14.3855 19.8177 14.3311 19.8828 14.2619 19.9288C14.1926 19.9747 14.1115 19.9994 14.0284 20C13.9453 20.0005 13.8638 19.9768 13.794 19.9318C13.7241 19.8868 13.6689 19.8224 13.635 19.7465L8.79765 8.86231C8.76263 8.78343 8.7523 8.69579 8.76802 8.61093C8.78374 8.52607 8.82477 8.4471 8.88572 8.38599Z" fill="#686868"/>
<path fill-rule="evenodd" clip-rule="evenodd" d="M2.16728 2.18194C2.16719 2.11433 2.18045 2.04737 2.20628 1.98488C2.23212 1.9224 2.27002 1.86563 2.31783 1.81782C2.36564 1.77001 2.42241 1.7321 2.48489 1.70627C2.54738 1.68043 2.61434 1.66718 2.68195 1.66727L5.58973 1.66727C5.72623 1.66727 5.85714 1.72149 5.95366 1.81801C6.05018 1.91453 6.10441 2.04544 6.10441 2.18194C6.10441 2.31844 6.05018 2.44935 5.95366 2.54587C5.85714 2.64239 5.72623 2.69662 5.58973 2.69662L3.92285 2.69589L6.68015 5.45319C6.77655 5.54959 6.8307 5.68034 6.8307 5.81667C6.8307 5.95299 6.77655 6.08374 6.68015 6.18014C6.58375 6.27654 6.453 6.33069 6.31668 6.33069C6.18035 6.33069 6.0496 6.27654 5.9532 6.18014L3.1959 3.42284L3.19663 5.08972C3.19663 5.22622 3.14241 5.35713 3.04588 5.45365C2.94936 5.55017 2.81845 5.6044 2.68195 5.6044C2.54545 5.6044 2.41454 5.55017 2.31802 5.45365C2.2215 5.35713 2.16728 5.22622 2.16728 5.08972L2.16728 2.18194Z" fill="#686868"/>
<path fill-rule="evenodd" clip-rule="evenodd" d="M2.68194 14.5553C2.61433 14.5554 2.54737 14.5421 2.48488 14.5163C2.4224 14.4905 2.36563 14.4525 2.31782 14.4047C2.27001 14.3569 2.2321 14.3002 2.20627 14.2377C2.18043 14.1752 2.16718 14.1082 2.16727 14.0406L2.16727 11.1328C2.16727 10.9963 2.22149 10.8654 2.31801 10.7689C2.41453 10.6724 2.54544 10.6182 2.68194 10.6182C2.81844 10.6182 2.94935 10.6724 3.04587 10.7689C3.14239 10.8654 3.19662 10.9963 3.19662 11.1328L3.19589 12.7997L5.95319 10.0424C6.04959 9.94602 6.18034 9.89186 6.31667 9.89186C6.45299 9.89186 6.58374 9.94602 6.68014 10.0424C6.77654 10.1388 6.83069 10.2696 6.83069 10.4059C6.83069 10.5422 6.77654 10.673 6.68014 10.7694L3.92284 13.5267L5.58972 13.5259C5.72622 13.5259 5.85713 13.5802 5.95365 13.6767C6.05017 13.7732 6.1044 13.9041 6.1044 14.0406C6.1044 14.1771 6.05017 14.308 5.95365 14.4045C5.85713 14.5011 5.72622 14.5553 5.58972 14.5553L2.68194 14.5553Z" fill="#686868"/>
<path fill-rule="evenodd" clip-rule="evenodd" d="M14.5405 1.66737C14.6081 1.66728 14.675 1.68054 14.7375 1.70637C14.8 1.7322 14.8568 1.77011 14.9046 1.81792C14.9524 1.86573 14.9903 1.9225 15.0161 1.98498C15.042 2.04747 15.0552 2.11443 15.0551 2.18204L15.0551 5.08982C15.0551 5.22632 15.0009 5.35723 14.9044 5.45375C14.8079 5.55027 14.677 5.6045 14.5405 5.6045C14.404 5.6045 14.2731 5.55027 14.1765 5.45375C14.08 5.35723 14.0258 5.22632 14.0258 5.08982L14.0265 3.42294L11.2692 6.18024C11.1728 6.27664 11.0421 6.33079 10.9057 6.33079C10.7694 6.33079 10.6387 6.27664 10.5423 6.18024C10.4459 6.08384 10.3917 5.95309 10.3917 5.81677C10.3917 5.68044 10.4459 5.54969 10.5423 5.45329L13.2996 2.69599L11.6327 2.69672C11.4962 2.69672 11.3653 2.6425 11.2688 2.54597C11.1722 2.44945 11.118 2.31854 11.118 2.18204C11.118 2.04554 11.1722 1.91463 11.2688 1.81811C11.3653 1.72159 11.4962 1.66737 11.6327 1.66737L14.5405 1.66737Z" fill="#686868"/>
</svg>
