<svg width="23" height="30" viewBox="0 0 23 30" fill="none" xmlns="http://www.w3.org/2000/svg">
<path d="M18.6828 2.61372C19.0208 1.81101 18.7687 0.873546 18.0757 0.357939C17.3826 -0.157667 16.4375 -0.110794 15.7902 0.463404L1.12672 13.5879C0.553926 14.1035 0.34772 14.9297 0.616933 15.6562C0.886146 16.3828 1.5735 16.8749 2.33531 16.8749H8.72195L4.31718 27.3863C3.97923 28.189 4.23126 29.1265 4.92434 29.6421C5.61742 30.1577 6.56252 30.1108 7.20978 29.5366L21.8733 16.4121C22.4461 15.8965 22.6523 15.0703 22.3831 14.3438C22.1139 13.6172 21.4322 13.1309 20.6647 13.1309H14.278L18.6828 2.61372Z" fill="#999999"/>
</svg>
