<svg width="100" height="100" viewBox="0 0 100 100" fill="none" xmlns="http://www.w3.org/2000/svg">
<path fill-rule="evenodd" clip-rule="evenodd" d="M39.775 84.375C39.775 85.2038 40.1042 85.9987 40.6903 86.5847C41.2763 87.1708 42.0712 87.5 42.9 87.5H84.375C86.8614 87.5 89.246 86.5123 91.0041 84.7541C92.7623 82.996 93.75 80.6114 93.75 78.125V15.625C93.75 13.1386 92.7623 10.754 91.0041 8.99587C89.246 7.23772 86.8614 6.25 84.375 6.25H21.875C19.3886 6.25 17.004 7.23772 15.2459 8.99587C13.4877 10.754 12.5 13.1386 12.5 15.625V57.1C12.5 57.9288 12.8292 58.7237 13.4153 59.3097C14.0013 59.8958 14.7962 60.225 15.625 60.225C16.4538 60.225 17.2487 59.8958 17.8347 59.3097C18.4208 58.7237 18.75 57.9288 18.75 57.1V15.625C18.75 14.7962 19.0792 14.0013 19.6653 13.4153C20.2513 12.8292 21.0462 12.5 21.875 12.5H84.375C85.2038 12.5 85.9987 12.8292 86.5847 13.4153C87.1708 14.0013 87.5 14.7962 87.5 15.625V78.125C87.5 78.9538 87.1708 79.7487 86.5847 80.3347C85.9987 80.9208 85.2038 81.25 84.375 81.25H42.9C42.0712 81.25 41.2763 81.5792 40.6903 82.1653C40.1042 82.7513 39.775 83.5462 39.775 84.375Z" fill="black"/>
<path fill-rule="evenodd" clip-rule="evenodd" d="M68.75 34.375C68.75 33.5462 68.4208 32.7513 67.8347 32.1653C67.2487 31.5792 66.4538 31.25 65.625 31.25H34.375C33.5462 31.25 32.7513 31.5792 32.1653 32.1653C31.5792 32.7513 31.25 33.5462 31.25 34.375C31.25 35.2038 31.5792 35.9987 32.1653 36.5847C32.7513 37.1708 33.5462 37.5 34.375 37.5H58.0812L7.1625 88.4125C6.5757 88.9993 6.24605 89.7952 6.24605 90.625C6.24605 91.4548 6.5757 92.2507 7.1625 92.8375C7.74929 93.4243 8.54515 93.7539 9.375 93.7539C10.2048 93.7539 11.0007 93.4243 11.5875 92.8375L62.5 41.9187V65.625C62.5 66.4538 62.8292 67.2487 63.4153 67.8347C64.0013 68.4208 64.7962 68.75 65.625 68.75C66.4538 68.75 67.2487 68.4208 67.8347 67.8347C68.4208 67.2487 68.75 66.4538 68.75 65.625V34.375Z" fill="black"/>
</svg>
