<svg width="348" height="39" viewBox="0 0 348 39" fill="none" xmlns="http://www.w3.org/2000/svg">
<rect x="32.7227" y="34" width="282.555" height="1" fill="#CACACA"/>
<g clip-path="url(#clip0_4303_5224)">
<path d="M9.50666 12.176H15.4907V13.584H9.50666V12.176ZM9.50666 14.704H15.4907V16.112H9.50666V14.704ZM9.47466 17.248H16.2427V18.816H9.47466V17.248ZM7.12266 5.904H16.1627V8.816H14.4507V7.504H8.73866V8.816H7.12266V5.904ZM11.6667 10.832H13.4267V18H11.6667V10.832ZM10.0987 9.52H15.8427V11.104H10.0987V19.44H8.29066V11.184L9.92266 9.52H10.0987ZM10.9307 4.384L12.7547 4.736C12.328 6.464 11.7147 8.00533 10.9147 9.36C10.1147 10.7147 9.12799 11.824 7.95466 12.688C7.86932 12.5707 7.74666 12.4213 7.58666 12.24C7.43732 12.048 7.27732 11.8613 7.10666 11.68C6.93599 11.4987 6.78666 11.3547 6.65866 11.248C7.74666 10.5333 8.64799 9.584 9.36266 8.4C10.0773 7.216 10.6 5.87733 10.9307 4.384ZM12.6587 7.904L14.4187 8.272C14.216 8.70933 14.008 9.136 13.7947 9.552C13.592 9.95733 13.4053 10.3093 13.2347 10.608L11.7947 10.24C11.944 9.90933 12.104 9.52533 12.2747 9.088C12.4453 8.65067 12.5733 8.256 12.6587 7.904ZM1.49066 5.36H7.25066V7.104H1.49066V5.36ZM3.28266 10.064H7.01066V17.504H3.28266V15.856H5.39466V11.712H3.28266V10.064ZM3.13866 6.288L4.93066 6.56C4.78132 7.712 4.57866 8.84267 4.32266 9.952C4.06666 11.0507 3.74132 12.0853 3.34666 13.056C2.96266 14.016 2.50399 14.8587 1.97066 15.584C1.91732 15.4347 1.82666 15.2427 1.69866 15.008C1.58132 14.7733 1.45332 14.5387 1.31466 14.304C1.18666 14.0693 1.06399 13.8827 0.946656 13.744C1.36266 13.1573 1.70932 12.4693 1.98666 11.68C2.27466 10.8907 2.50932 10.0373 2.69066 9.12C2.88266 8.20267 3.03199 7.25867 3.13866 6.288ZM2.53066 10.064H4.08266V18.752H2.53066V10.064ZM26.2907 5.696H28.0187C27.944 6.336 27.832 6.98133 27.6827 7.632C27.544 8.272 27.3307 8.89067 27.0427 9.488C26.7547 10.0747 26.3707 10.6293 25.8907 11.152C25.4213 11.664 24.8133 12.112 24.0667 12.496C23.9707 12.272 23.816 12.0267 23.6027 11.76C23.3893 11.4933 23.1867 11.2853 22.9947 11.136C23.6347 10.8267 24.1573 10.464 24.5627 10.048C24.968 9.632 25.288 9.184 25.5227 8.704C25.7573 8.224 25.928 7.728 26.0347 7.216C26.152 6.704 26.2373 6.19733 26.2907 5.696ZM23.5227 8.432L24.4187 7.104C24.952 7.25333 25.496 7.44533 26.0507 7.68C26.616 7.91467 27.1493 8.16 27.6507 8.416C28.1627 8.672 28.5947 8.912 28.9467 9.136L28.0347 10.624C27.6933 10.368 27.2667 10.1067 26.7547 9.84C26.2533 9.56267 25.72 9.30133 25.1547 9.056C24.6 8.8 24.056 8.592 23.5227 8.432ZM29.9547 5.024H31.7467C31.7467 5.024 31.7467 5.072 31.7467 5.168C31.7467 5.25333 31.7413 5.35467 31.7307 5.472C31.7307 5.57867 31.7253 5.664 31.7147 5.728C31.672 6.944 31.6187 7.94133 31.5547 8.72C31.4907 9.488 31.4107 10.0853 31.3147 10.512C31.2293 10.928 31.1173 11.2213 30.9787 11.392C30.8187 11.5947 30.6533 11.7387 30.4827 11.824C30.3227 11.9093 30.1307 11.968 29.9067 12C29.7147 12.0427 29.464 12.0693 29.1547 12.08C28.8453 12.08 28.5147 12.0747 28.1627 12.064C28.152 11.7973 28.0987 11.504 28.0027 11.184C27.9173 10.8533 27.8107 10.5707 27.6827 10.336C27.96 10.368 28.2107 10.3893 28.4347 10.4C28.6587 10.4 28.8347 10.4 28.9627 10.4C29.1653 10.4107 29.3253 10.3467 29.4427 10.208C29.5173 10.1013 29.5867 9.88267 29.6507 9.552C29.7147 9.21067 29.768 8.69867 29.8107 8.016C29.864 7.33333 29.912 6.432 29.9547 5.312V5.024ZM25.2827 13.664H27.0427V17.152C27.0427 17.376 27.064 17.52 27.1067 17.584C27.1493 17.6373 27.2453 17.664 27.3947 17.664C27.4267 17.664 27.48 17.664 27.5547 17.664C27.6293 17.664 27.7093 17.664 27.7947 17.664C27.88 17.664 27.96 17.664 28.0347 17.664C28.12 17.664 28.1787 17.664 28.2107 17.664C28.3173 17.664 28.3973 17.6267 28.4507 17.552C28.504 17.4773 28.5467 17.3227 28.5787 17.088C28.6107 16.8427 28.632 16.4747 28.6427 15.984C28.7493 16.0693 28.8933 16.16 29.0747 16.256C29.2667 16.3413 29.4587 16.4213 29.6507 16.496C29.8533 16.56 30.0347 16.6187 30.1947 16.672C30.1413 17.3653 30.0453 17.904 29.9067 18.288C29.7787 18.6827 29.592 18.9493 29.3467 19.088C29.112 19.2373 28.8027 19.312 28.4187 19.312C28.344 19.312 28.2427 19.312 28.1147 19.312C27.9973 19.312 27.8747 19.312 27.7467 19.312C27.6187 19.312 27.496 19.312 27.3787 19.312C27.2613 19.312 27.1653 19.312 27.0907 19.312C26.6 19.312 26.2213 19.2427 25.9547 19.104C25.6987 18.976 25.5227 18.7573 25.4267 18.448C25.3307 18.1387 25.2827 17.7173 25.2827 17.184V13.664ZM23.6507 14.288L25.1707 14.688C25.128 15.1573 25.0587 15.632 24.9627 16.112C24.8667 16.592 24.7387 17.0453 24.5787 17.472C24.4187 17.888 24.2053 18.256 23.9387 18.576L22.5307 17.728C22.7547 17.4507 22.9413 17.1307 23.0907 16.768C23.24 16.3947 23.3573 15.9947 23.4427 15.568C23.5387 15.1413 23.608 14.7147 23.6507 14.288ZM25.6507 12.56L26.7547 11.44C27.096 11.6107 27.448 11.8133 27.8107 12.048C28.1733 12.272 28.5147 12.512 28.8347 12.768C29.1653 13.0133 29.432 13.248 29.6347 13.472L28.4347 14.72C28.2533 14.4853 28.008 14.24 27.6987 13.984C27.4 13.728 27.0693 13.4773 26.7067 13.232C26.344 12.976 25.992 12.752 25.6507 12.56ZM29.1707 14.544L30.7227 13.92C31.0107 14.3253 31.272 14.7627 31.5067 15.232C31.7413 15.7013 31.944 16.1707 32.1147 16.64C32.2853 17.0987 32.408 17.5147 32.4827 17.888L30.7867 18.592C30.744 18.208 30.6427 17.7867 30.4827 17.328C30.3227 16.8587 30.1307 16.3787 29.9067 15.888C29.6827 15.3973 29.4373 14.9493 29.1707 14.544ZM23.7467 5.024H30.7707V6.624H23.7467V5.024ZM17.9227 9.312H22.6107V10.768H17.9227V9.312ZM17.9867 4.912H22.5787V6.352H17.9867V4.912ZM17.9227 11.504H22.6107V12.944H17.9227V11.504ZM17.2027 7.056H23.0427V8.576H17.2027V7.056ZM18.7547 13.712H22.6427V18.592H18.7547V17.072H21.0427V15.232H18.7547V13.712ZM17.8907 13.712H19.4747V19.216H17.8907V13.712ZM40.0347 5.68H48.2587V7.52H40.0347V5.68ZM43.5387 6.416H45.4907V17.152C45.4907 17.696 45.4267 18.112 45.2987 18.4C45.1707 18.6987 44.936 18.928 44.5947 19.088C44.264 19.2373 43.8373 19.3333 43.3147 19.376C42.8027 19.4187 42.184 19.4347 41.4587 19.424C41.448 19.2427 41.4053 19.0347 41.3307 18.8C41.256 18.5653 41.176 18.3307 41.0907 18.096C41.0053 17.8613 40.9147 17.6533 40.8187 17.472C41.1387 17.4827 41.4587 17.4933 41.7787 17.504C42.0987 17.5147 42.376 17.52 42.6107 17.52C42.856 17.5093 43.0267 17.504 43.1227 17.504C43.272 17.504 43.3787 17.4827 43.4427 17.44C43.5067 17.3867 43.5387 17.2853 43.5387 17.136V6.416ZM33.9867 9.312H39.1547V10.768H33.9867V9.312ZM34.0827 4.912H39.1707V6.352H34.0827V4.912ZM33.9867 11.504H39.1547V12.944H33.9867V11.504ZM33.2027 7.056H39.7787V8.576H33.2027V7.056ZM34.8667 13.712H39.1067V18.592H34.8667V17.072H37.4107V15.232H34.8667V13.712ZM33.9387 13.712H35.6027V19.216H33.9387V13.712ZM55.6667 9.744H57.6507V19.44H55.6667V9.744ZM52.9627 12.592V13.44H60.5307V12.592H52.9627ZM52.9627 10.352V11.216H60.5307V10.352H52.9627ZM51.0907 8.88H62.5147V14.912H51.0907V8.88ZM49.5707 15.744H63.9067V17.408H49.5707V15.744ZM52.2107 6.176V7.104H54.4667V6.176H52.2107ZM50.5147 5.024H56.2747V8.256H50.5147V5.024ZM58.9307 6.176V7.104H61.2187V6.176H58.9307ZM57.2187 5.024H63.0267V8.256H57.2187V5.024Z" fill="#CACACA"/>
<circle cx="32.7227" cy="34" r="5" fill="#CACACA"/>
</g>
<g clip-path="url(#clip1_4303_5224)">
<path d="M147.584 5.52H157.28V7.072H147.584V5.52ZM147.088 14.88H157.536V16.48H147.088V14.88ZM151.472 4.4H153.328V8.56H151.472V4.4ZM150.48 10.688V11.328H154.352V10.688H150.48ZM150.48 12.432V13.056H154.352V12.432H150.48ZM150.48 8.992V9.6H154.352V8.992H150.48ZM148.752 7.808H156.176V14.224H148.752V7.808ZM152.992 17.296L154.304 16.352C154.709 16.576 155.115 16.8213 155.52 17.088C155.936 17.344 156.331 17.6 156.704 17.856C157.077 18.112 157.392 18.3467 157.648 18.56L155.888 19.44C155.675 19.2373 155.408 19.008 155.088 18.752C154.768 18.5067 154.427 18.256 154.064 18C153.701 17.744 153.344 17.5093 152.992 17.296ZM150.016 16.432L151.824 17.056C151.344 17.536 150.752 17.9893 150.048 18.416C149.344 18.8427 148.661 19.1893 148 19.456C147.893 19.3387 147.755 19.1947 147.584 19.024C147.413 18.8533 147.237 18.6827 147.056 18.512C146.885 18.352 146.725 18.2187 146.576 18.112C147.237 17.92 147.883 17.68 148.512 17.392C149.141 17.0933 149.643 16.7733 150.016 16.432ZM142.704 8.224H147.552V10.048H142.704V8.224ZM144.336 4.656H146.128V15.28H144.336V4.656ZM142.352 15.12C142.8 14.96 143.307 14.7733 143.872 14.56C144.437 14.336 145.04 14.096 145.68 13.84C146.32 13.5733 146.955 13.3067 147.584 13.04L148.016 14.816C147.184 15.2 146.336 15.5893 145.472 15.984C144.608 16.3787 143.808 16.7307 143.072 17.04L142.352 15.12ZM165.024 4.416H166.96V6.608H165.024V4.416ZM159.056 5.52H172.944V8.816H171.136V7.152H160.8V8.816H159.056V5.52ZM164.656 7.312L165.792 8.48C165.248 8.704 164.635 8.90133 163.952 9.072C163.28 9.24267 162.645 9.376 162.048 9.472C162.005 9.312 161.941 9.12 161.856 8.896C161.771 8.672 161.685 8.47467 161.6 8.304C161.963 8.22933 162.331 8.13867 162.704 8.032C163.077 7.92533 163.435 7.81333 163.776 7.696C164.128 7.568 164.421 7.44 164.656 7.312ZM161.008 8.016L162.704 8.32V12.624H161.008V8.016ZM161.008 11.84H169.264V9.312H166.352V8.016H170.992V13.136H161.008V11.84ZM161.504 9.936H165.36V11.2H161.504V9.936ZM166.608 9.936H170.064V11.2H166.608V9.936ZM163.104 12.368L164.816 12.88C164.443 13.4987 163.984 14.08 163.44 14.624C162.896 15.1573 162.299 15.6373 161.648 16.064C161.008 16.48 160.347 16.8373 159.664 17.136C159.589 17.0187 159.483 16.864 159.344 16.672C159.216 16.48 159.077 16.2933 158.928 16.112C158.789 15.92 158.661 15.7653 158.544 15.648C159.184 15.424 159.792 15.152 160.368 14.832C160.955 14.512 161.483 14.144 161.952 13.728C162.432 13.312 162.816 12.8587 163.104 12.368ZM162.848 13.856H171.216V15.376H161.344L162.848 13.856ZM170.624 13.856H172.512C172.512 13.856 172.507 13.9413 172.496 14.112C172.496 14.2827 172.491 14.4213 172.48 14.528C172.448 15.4133 172.4 16.144 172.336 16.72C172.272 17.2853 172.192 17.7333 172.096 18.064C172.011 18.3947 171.899 18.6347 171.76 18.784C171.589 18.976 171.403 19.1093 171.2 19.184C171.008 19.2693 170.789 19.3227 170.544 19.344C170.331 19.376 170.043 19.392 169.68 19.392C169.328 19.4027 168.949 19.3973 168.544 19.376C168.533 19.12 168.48 18.832 168.384 18.512C168.288 18.2027 168.171 17.9413 168.032 17.728C168.373 17.76 168.688 17.7813 168.976 17.792C169.264 17.8027 169.477 17.8027 169.616 17.792C169.733 17.792 169.835 17.7867 169.92 17.776C170.005 17.7547 170.08 17.7067 170.144 17.632C170.229 17.5467 170.299 17.3813 170.352 17.136C170.416 16.88 170.469 16.5067 170.512 16.016C170.555 15.5253 170.592 14.8853 170.624 14.096V13.856ZM161.2 15.664L162.72 16.112C162.603 16.6987 162.443 17.2693 162.24 17.824C162.037 18.3787 161.739 18.8427 161.344 19.216L159.92 18.416C160.261 18.0853 160.533 17.6747 160.736 17.184C160.949 16.6933 161.104 16.1867 161.2 15.664ZM163.2 16.064L164.64 15.904C164.789 16.3627 164.907 16.8587 164.992 17.392C165.088 17.9147 165.131 18.3627 165.12 18.736L163.6 18.944C163.611 18.5707 163.579 18.1173 163.504 17.584C163.44 17.04 163.339 16.5333 163.2 16.064ZM165.376 16.096L166.704 15.76C166.917 16.1333 167.099 16.5387 167.248 16.976C167.408 17.4027 167.509 17.776 167.552 18.096L166.128 18.464C166.096 18.144 166.005 17.7653 165.856 17.328C165.717 16.88 165.557 16.4693 165.376 16.096ZM167.472 16.016L168.704 15.488C168.917 15.712 169.125 15.9733 169.328 16.272C169.541 16.56 169.696 16.816 169.792 17.04L168.496 17.632C168.411 17.3973 168.267 17.1307 168.064 16.832C167.872 16.5227 167.675 16.2507 167.472 16.016ZM175.264 5.952L176.112 4.64C176.475 4.72533 176.864 4.83733 177.28 4.976C177.696 5.104 178.101 5.24267 178.496 5.392C178.901 5.53067 179.237 5.664 179.504 5.792L178.64 7.248C178.384 7.12 178.064 6.976 177.68 6.816C177.296 6.64533 176.891 6.48533 176.464 6.336C176.037 6.18667 175.637 6.05867 175.264 5.952ZM174.56 8.656C175.147 8.54933 175.851 8.4 176.672 8.208C177.504 8.016 178.341 7.824 179.184 7.632L179.36 9.136C178.667 9.36 177.963 9.57333 177.248 9.776C176.544 9.968 175.888 10.1493 175.28 10.32L174.56 8.656ZM181.648 5.472H187.792V6.832H180.576L181.648 5.472ZM187.344 5.472H187.616L187.904 5.408L189.168 5.744C188.965 6.17067 188.725 6.608 188.448 7.056C188.181 7.504 187.92 7.87733 187.664 8.176L186.16 7.712C186.373 7.456 186.592 7.14133 186.816 6.768C187.04 6.384 187.216 6.02667 187.344 5.696V5.472ZM183.296 6.048H185.008C184.933 6.61333 184.805 7.13067 184.624 7.6C184.443 8.05867 184.176 8.46933 183.824 8.832C183.483 9.184 183.019 9.49333 182.432 9.76C181.856 10.0267 181.115 10.2507 180.208 10.432C180.133 10.2293 180.011 9.99467 179.84 9.728C179.669 9.45067 179.504 9.232 179.344 9.072C180.112 8.944 180.741 8.78933 181.232 8.608C181.723 8.42667 182.101 8.21867 182.368 7.984C182.645 7.73867 182.853 7.456 182.992 7.136C183.131 6.816 183.232 6.45333 183.296 6.048ZM184.912 6.448C184.976 6.74667 185.083 7.03467 185.232 7.312C185.392 7.58933 185.632 7.84533 185.952 8.08C186.272 8.304 186.72 8.50667 187.296 8.688C187.872 8.85867 188.613 8.99733 189.52 9.104C189.339 9.296 189.157 9.54667 188.976 9.856C188.795 10.1653 188.656 10.4427 188.56 10.688C187.568 10.528 186.752 10.304 186.112 10.016C185.483 9.728 184.987 9.40267 184.624 9.04C184.272 8.67733 184 8.288 183.808 7.872C183.627 7.44533 183.483 7.024 183.376 6.608L184.912 6.448ZM181.6 4.4L183.296 4.688C182.987 5.31733 182.624 5.92533 182.208 6.512C181.792 7.088 181.28 7.62133 180.672 8.112C180.501 7.94133 180.272 7.77067 179.984 7.6C179.707 7.42933 179.451 7.296 179.216 7.2C179.803 6.79467 180.293 6.34667 180.688 5.856C181.083 5.35467 181.387 4.86933 181.6 4.4ZM178.592 13.12V13.792H185.552V13.12H178.592ZM178.592 14.88V15.584H185.552V14.88H178.592ZM178.592 11.344V12.032H185.552V11.344H178.592ZM176.736 10.208H187.488V16.72H176.736V10.208ZM182.896 17.568L184.496 16.656C185.072 16.8587 185.653 17.0773 186.24 17.312C186.837 17.536 187.403 17.7653 187.936 18C188.48 18.224 188.939 18.4267 189.312 18.608L187.072 19.472C186.773 19.3013 186.4 19.104 185.952 18.88C185.504 18.656 185.019 18.4267 184.496 18.192C183.984 17.968 183.451 17.76 182.896 17.568ZM179.36 16.592L181.104 17.392C180.677 17.6693 180.176 17.9413 179.6 18.208C179.024 18.4747 178.432 18.7147 177.824 18.928C177.216 19.152 176.64 19.3387 176.096 19.488C175.979 19.36 175.835 19.2053 175.664 19.024C175.504 18.8533 175.333 18.6773 175.152 18.496C174.971 18.3253 174.811 18.1867 174.672 18.08C175.237 17.9733 175.808 17.8453 176.384 17.696C176.971 17.5467 177.52 17.376 178.032 17.184C178.555 16.992 178.997 16.7947 179.36 16.592ZM193.04 4.48H194.8V19.392H193.04V4.48ZM190.608 9.744H197.168V11.536H190.608V9.744ZM192.688 10.688L193.76 11.216C193.621 11.7493 193.461 12.3147 193.28 12.912C193.099 13.4987 192.896 14.0853 192.672 14.672C192.448 15.2587 192.213 15.8133 191.968 16.336C191.723 16.848 191.461 17.296 191.184 17.68C191.131 17.4773 191.051 17.2587 190.944 17.024C190.848 16.7787 190.741 16.5387 190.624 16.304C190.517 16.0693 190.416 15.8667 190.32 15.696C190.64 15.3013 190.949 14.816 191.248 14.24C191.557 13.6533 191.84 13.0507 192.096 12.432C192.352 11.8027 192.549 11.2213 192.688 10.688ZM194.784 11.616C194.869 11.7013 194.992 11.8347 195.152 12.016C195.323 12.1973 195.509 12.4053 195.712 12.64C195.915 12.864 196.107 13.0933 196.288 13.328C196.48 13.552 196.651 13.7547 196.8 13.936C196.96 14.1173 197.072 14.256 197.136 14.352L195.968 15.856C195.861 15.6213 195.723 15.3493 195.552 15.04C195.381 14.72 195.195 14.3947 194.992 14.064C194.789 13.7227 194.592 13.4027 194.4 13.104C194.208 12.8053 194.043 12.56 193.904 12.368L194.784 11.616ZM190.592 5.712L191.936 5.36C192.075 5.744 192.197 6.16 192.304 6.608C192.421 7.056 192.517 7.49333 192.592 7.92C192.667 8.34667 192.72 8.73067 192.752 9.072L191.312 9.456C191.301 9.11467 191.259 8.73067 191.184 8.304C191.12 7.86667 191.035 7.424 190.928 6.976C190.832 6.51733 190.72 6.096 190.592 5.712ZM195.856 5.28L197.472 5.632C197.344 6.06933 197.205 6.51733 197.056 6.976C196.907 7.43467 196.757 7.87733 196.608 8.304C196.459 8.72 196.32 9.088 196.192 9.408L194.976 9.056C195.093 8.71467 195.205 8.32533 195.312 7.888C195.429 7.44 195.536 6.98667 195.632 6.528C195.728 6.06933 195.803 5.65333 195.856 5.28ZM201.92 4.4H203.712V19.424H201.92V4.4ZM197.136 14.416L205.36 12.944L205.648 14.72L197.424 16.208L197.136 14.416ZM198.032 6.576L198.976 5.28C199.275 5.45067 199.584 5.648 199.904 5.872C200.235 6.096 200.544 6.32533 200.832 6.56C201.131 6.79467 201.365 7.01333 201.536 7.216L200.544 8.656C200.384 8.44267 200.16 8.21333 199.872 7.968C199.595 7.72267 199.296 7.47733 198.976 7.232C198.656 6.98667 198.341 6.768 198.032 6.576ZM197.312 10.608L198.208 9.232C198.528 9.392 198.859 9.584 199.2 9.808C199.541 10.0213 199.867 10.24 200.176 10.464C200.485 10.6773 200.736 10.8853 200.928 11.088L199.952 12.624C199.781 12.4213 199.547 12.2027 199.248 11.968C198.949 11.7227 198.629 11.4827 198.288 11.248C197.957 11.0027 197.632 10.7893 197.312 10.608Z" fill="#CACACA"/>
<circle cx="174" cy="34" r="5" fill="#CACACA"/>
</g>
<g clip-path="url(#clip2_4303_5224)">
<path d="M287.085 8.944H295.389V10.688H287.085V8.944ZM284.109 11.84H298.445V13.632H284.109V11.84ZM287.981 13.28H290.061C289.987 14.016 289.864 14.704 289.693 15.344C289.523 15.9733 289.251 16.5493 288.877 17.072C288.515 17.584 288.003 18.0427 287.341 18.448C286.68 18.8533 285.827 19.1947 284.781 19.472C284.717 19.3013 284.621 19.1093 284.493 18.896C284.376 18.6827 284.243 18.4693 284.093 18.256C283.944 18.0533 283.8 17.888 283.661 17.76C284.579 17.5573 285.309 17.312 285.853 17.024C286.408 16.736 286.824 16.4107 287.101 16.048C287.389 15.6747 287.592 15.2587 287.709 14.8C287.837 14.3307 287.928 13.824 287.981 13.28ZM292.109 12.96H294.045V16.864C294.045 17.12 294.083 17.2853 294.157 17.36C294.243 17.424 294.429 17.456 294.717 17.456C294.781 17.456 294.883 17.456 295.021 17.456C295.16 17.456 295.315 17.456 295.485 17.456C295.656 17.456 295.816 17.456 295.965 17.456C296.115 17.456 296.232 17.456 296.317 17.456C296.488 17.456 296.616 17.4133 296.701 17.328C296.797 17.2427 296.861 17.0613 296.893 16.784C296.936 16.496 296.968 16.0747 296.989 15.52C297.128 15.616 297.299 15.712 297.501 15.808C297.704 15.904 297.912 15.9893 298.125 16.064C298.349 16.1387 298.547 16.2027 298.717 16.256C298.653 17.024 298.541 17.6213 298.381 18.048C298.221 18.4853 297.992 18.784 297.693 18.944C297.405 19.1147 297.005 19.2 296.493 19.2C296.397 19.2 296.253 19.2 296.061 19.2C295.88 19.2 295.677 19.2 295.453 19.2C295.24 19.2 295.037 19.2 294.845 19.2C294.664 19.2 294.525 19.2 294.429 19.2C293.811 19.2 293.331 19.1307 292.989 18.992C292.659 18.8533 292.429 18.6133 292.301 18.272C292.173 17.9307 292.109 17.472 292.109 16.896V12.96ZM290.205 4.416H292.253V7.328H290.205V4.416ZM284.397 5.952H298.141V9.76H296.093V7.776H286.349V9.76H284.397V5.952ZM302.189 10.432H305.885V12.176H302.189V10.432ZM305.149 10.432H307.005C307.005 10.432 307.005 10.4747 307.005 10.56C307.005 10.6453 307.005 10.7467 307.005 10.864C307.005 10.9707 307.005 11.0613 307.005 11.136C306.984 12.2667 306.957 13.1947 306.925 13.92C306.893 14.6347 306.84 15.1947 306.765 15.6C306.701 15.9947 306.611 16.272 306.493 16.432C306.333 16.6347 306.163 16.7787 305.981 16.864C305.811 16.9493 305.608 17.0133 305.373 17.056C305.16 17.0987 304.888 17.1253 304.557 17.136C304.237 17.136 303.885 17.1307 303.501 17.12C303.491 16.8427 303.437 16.5333 303.341 16.192C303.245 15.8507 303.128 15.5627 302.989 15.328C303.277 15.3493 303.544 15.3653 303.789 15.376C304.045 15.3867 304.237 15.392 304.365 15.392C304.472 15.392 304.563 15.3813 304.637 15.36C304.723 15.328 304.792 15.2747 304.845 15.2C304.92 15.104 304.973 14.9067 305.005 14.608C305.048 14.2987 305.08 13.8347 305.101 13.216C305.123 12.5867 305.139 11.7547 305.149 10.72V10.432ZM309.949 5.408L311.117 4.256C311.416 4.40533 311.731 4.58133 312.061 4.784C312.392 4.98667 312.707 5.18933 313.005 5.392C313.315 5.59467 313.565 5.792 313.757 5.984L312.525 7.264C312.344 7.08267 312.109 6.88 311.821 6.656C311.533 6.432 311.224 6.21333 310.893 6C310.563 5.776 310.248 5.57867 309.949 5.408ZM311.837 9.536L313.789 10C313.117 12.08 312.2 13.92 311.037 15.52C309.875 17.1093 308.499 18.3947 306.909 19.376C306.824 19.2373 306.696 19.0667 306.525 18.864C306.355 18.672 306.179 18.4747 305.997 18.272C305.816 18.08 305.656 17.92 305.517 17.792C307.053 16.96 308.355 15.84 309.421 14.432C310.488 13.0133 311.293 11.3813 311.837 9.536ZM302.285 6.8H314.637V8.688H302.285V6.8ZM301.005 6.8H303.021V11.52C303.021 12.1173 303 12.7733 302.957 13.488C302.915 14.192 302.835 14.9173 302.717 15.664C302.6 16.4 302.424 17.1093 302.189 17.792C301.965 18.4747 301.672 19.088 301.309 19.632C301.203 19.4933 301.043 19.3387 300.829 19.168C300.627 18.9973 300.419 18.8267 300.205 18.656C300.003 18.496 299.827 18.384 299.677 18.32C300.083 17.68 300.376 16.9653 300.557 16.176C300.749 15.376 300.872 14.5707 300.925 13.76C300.979 12.9493 301.005 12.1973 301.005 11.504V6.8ZM307.501 4.416H309.517C309.496 5.728 309.533 7.01333 309.629 8.272C309.725 9.53067 309.864 10.7093 310.045 11.808C310.237 12.896 310.461 13.8613 310.717 14.704C310.973 15.536 311.256 16.1867 311.565 16.656C311.875 17.1253 312.189 17.36 312.509 17.36C312.691 17.36 312.829 17.1413 312.925 16.704C313.032 16.2667 313.107 15.5467 313.149 14.544C313.373 14.7573 313.635 14.9653 313.933 15.168C314.243 15.3707 314.525 15.52 314.781 15.616C314.685 16.608 314.541 17.376 314.349 17.92C314.157 18.4533 313.901 18.8213 313.581 19.024C313.261 19.2267 312.851 19.328 312.349 19.328C311.773 19.328 311.251 19.1307 310.781 18.736C310.323 18.3413 309.912 17.792 309.549 17.088C309.197 16.384 308.893 15.5573 308.637 14.608C308.381 13.6587 308.168 12.6293 307.997 11.52C307.837 10.4107 307.715 9.25867 307.629 8.064C307.555 6.85867 307.512 5.64267 307.501 4.416ZM322.589 5.68H330.813V7.52H322.589V5.68ZM326.093 6.416H328.045V17.152C328.045 17.696 327.981 18.112 327.853 18.4C327.725 18.6987 327.491 18.928 327.149 19.088C326.819 19.2373 326.392 19.3333 325.869 19.376C325.357 19.4187 324.739 19.4347 324.013 19.424C324.003 19.2427 323.96 19.0347 323.885 18.8C323.811 18.5653 323.731 18.3307 323.645 18.096C323.56 17.8613 323.469 17.6533 323.373 17.472C323.693 17.4827 324.013 17.4933 324.333 17.504C324.653 17.5147 324.931 17.52 325.165 17.52C325.411 17.5093 325.581 17.504 325.677 17.504C325.827 17.504 325.933 17.4827 325.997 17.44C326.061 17.3867 326.093 17.2853 326.093 17.136V6.416ZM316.541 9.312H321.709V10.768H316.541V9.312ZM316.637 4.912H321.725V6.352H316.637V4.912ZM316.541 11.504H321.709V12.944H316.541V11.504ZM315.757 7.056H322.333V8.576H315.757V7.056ZM317.421 13.712H321.661V18.592H317.421V17.072H319.965V15.232H317.421V13.712ZM316.493 13.712H318.157V19.216H316.493V13.712ZM338.221 9.744H340.205V19.44H338.221V9.744ZM335.517 12.592V13.44H343.085V12.592H335.517ZM335.517 10.352V11.216H343.085V10.352H335.517ZM333.645 8.88H345.069V14.912H333.645V8.88ZM332.125 15.744H346.461V17.408H332.125V15.744ZM334.765 6.176V7.104H337.021V6.176H334.765ZM333.069 5.024H338.829V8.256H333.069V5.024ZM341.485 6.176V7.104H343.773V6.176H341.485ZM339.773 5.024H345.581V8.256H339.773V5.024Z" fill="#373737"/>
<circle cx="315.277" cy="34" r="5" fill="#373737"/>
</g>
<defs>
<clipPath id="clip0_4303_5224">
<rect width="64" height="39" fill="white" transform="translate(0.722656)"/>
</clipPath>
<clipPath id="clip1_4303_5224">
<rect width="64" height="39" fill="white" transform="translate(142)"/>
</clipPath>
<clipPath id="clip2_4303_5224">
<rect width="64" height="39" fill="white" transform="translate(283.277)"/>
</clipPath>
</defs>
</svg>
